<?xml version="1.0" encoding="UTF-8"?>
<svg id="Layer_1" data-name="Layer 1" xmlns="http://www.w3.org/2000/svg" viewBox="0 0 99 87.4">
  <defs>
    <style>
      .cls-1, .cls-2 {
        fill: #bf311a;
      }

      .cls-1, .cls-2, .cls-3, .cls-4 {
        stroke-width: 0px;
      }

      .cls-1, .cls-4 {
        fill-rule: evenodd;
      }

      .cls-3, .cls-4 {
        fill: #fff;
      }
    </style>
  </defs>
  <path class="cls-3" d="m54.6,84.65L98.26,8.85c.37-.64.62-1.27.71-2.02.11-1.04,0-2.13-.38-3.1-.88-2.24-3.18-3.73-5.57-3.73L5.99.04C4.4.04,2.88.67,1.75,1.79.52,3.03-.1,4.72.01,6.46c.06.9.37,1.74.81,2.52l43.67,75.63c1.02,1.76,3.07,2.78,5.08,2.78,1,0,1.99-.24,2.87-.72.87-.48,1.67-1.16,2.16-2.03"/>
  <path class="cls-1" d="m52.68,83.53c-.33.51-.69.84-1.23,1.16-.97.56-2.22.6-3.26.22-.72-.26-1.36-.76-1.74-1.42L2.75,7.85c-.45-.78-.6-1.67-.43-2.56.33-1.71,1.95-3,3.68-3l87.03-.04c1.79,0,3.33,1.25,3.67,3.01.17.87.06,1.7-.39,2.47l-43.63,75.81Z"/>
  <path class="cls-4" d="m70.31,22.9c.19-.34.35-.69.47-1.07.33-1.05.12-2.08-.51-2.99-.69-1.01-1.86-1.62-3.07-1.62l-35.22.02c-1.72,0-3.33,1.22-3.66,2.94-.17.89-.07,1.77.38,2.56l17.58,30.51c.7,1.21,1.83,1.96,3.25,1.96,1.14,0,2.43-.57,3.03-1.59l17.75-30.73Z"/>
  <polygon class="cls-1" points="38.59 23.99 37.15 20.78 35.75 20.78 37.95 25.69 37.95 29.85 39.23 29.85 39.23 25.69 41.42 20.78 40.03 20.78 38.59 23.99"/>
  <polygon class="cls-1" points="47.41 25.6 49.33 25.6 49.33 24.33 47.41 24.33 47.41 22.06 50.53 22.06 50.53 20.78 46.14 20.78 46.14 29.85 50.67 29.85 50.67 28.58 47.41 28.58 47.41 25.6"/>
  <polygon class="cls-1" points="53.48 20.78 52.21 20.78 52.21 29.85 56.75 29.85 56.75 28.64 53.48 28.64 53.48 20.78"/>
  <path class="cls-1" d="m63.07,23.29c-.13-.75-.39-1.47-1.01-1.96-.44-.35-1.01-.56-1.58-.56h-2.2v9.07h2.2c.62-.04,1.1-.16,1.61-.56.84-.67.99-1.68,1.1-2.67.12-1.1.08-2.23-.11-3.32m-1.35,4.28c-.15.59-.66,1.01-1.27,1.01h-.89v-6.53h.93c.56,0,1.07.38,1.22.91.21.75.26,1.57.26,2.34,0,.75-.06,1.53-.24,2.26"/>
  <rect class="cls-2" x="42.96" y="20.78" width="1.26" height="9.07"/>
</svg>