<?xml version="1.0" encoding="UTF-8"?>
<svg id="Layer_1" data-name="Layer 1" xmlns="http://www.w3.org/2000/svg" viewBox="0 0 57.6 57.6">
  <defs>
    <style>
      .cls-1 {
        fill: #bf311a;
      }

      .cls-1, .cls-2, .cls-3, .cls-4 {
        stroke-width: 0px;
      }

      .cls-1, .cls-3, .cls-4 {
        fill-rule: evenodd;
      }

      .cls-2, .cls-3 {
        fill: #fff;
      }

      .cls-4 {
        fill: #221f1f;
      }
    </style>
  </defs>
  <path class="cls-2" d="m3.6,0h50.4c1.98,0,3.6,1.62,3.6,3.6v50.4c0,1.98-1.62,3.6-3.6,3.6H3.6c-1.98,0-3.6-1.62-3.6-3.6V3.6C0,1.62,1.62,0,3.6,0"/>
  <polygon class="cls-4" points="3.61 .96 53.99 .96 54.13 .97 54.27 .97 54.4 .99 54.53 1.01 54.66 1.04 54.78 1.08 54.9 1.12 55.02 1.17 55.14 1.22 55.25 1.28 55.36 1.34 55.47 1.41 55.58 1.49 55.68 1.56 55.77 1.65 55.86 1.74 55.95 1.83 56.03 1.92 56.11 2.02 56.19 2.13 56.26 2.24 56.32 2.35 56.38 2.46 56.43 2.58 56.48 2.7 56.52 2.82 56.55 2.94 56.59 3.07 56.61 3.2 56.62 3.33 56.63 3.47 56.64 3.61 56.64 53.99 56.63 54.14 56.62 54.27 56.61 54.4 56.59 54.53 56.55 54.66 56.52 54.78 56.48 54.91 56.43 55.03 56.38 55.14 56.32 55.26 56.26 55.37 56.19 55.47 56.11 55.58 56.03 55.68 55.95 55.78 55.86 55.87 55.77 55.95 55.68 56.04 55.58 56.12 55.47 56.19 55.36 56.26 55.25 56.32 55.14 56.38 55.02 56.43 54.9 56.48 54.78 56.52 54.66 56.56 54.53 56.59 54.4 56.61 54.27 56.63 54.13 56.64 53.99 56.64 3.61 56.64 3.46 56.64 3.33 56.63 3.2 56.61 3.07 56.59 2.94 56.56 2.82 56.52 2.7 56.48 2.57 56.43 2.46 56.38 2.34 56.32 2.23 56.26 2.12 56.19 2.02 56.12 1.92 56.04 1.83 55.95 1.73 55.87 1.65 55.78 1.56 55.68 1.48 55.58 1.41 55.47 1.34 55.37 1.28 55.26 1.22 55.14 1.17 55.03 1.12 54.91 1.08 54.78 1.04 54.66 1.01 54.53 .99 54.4 .97 54.27 .96 54.14 .96 53.99 .96 3.61 .96 3.47 .97 3.33 .99 3.2 1.01 3.07 1.04 2.94 1.08 2.82 1.12 2.7 1.17 2.58 1.22 2.46 1.28 2.35 1.34 2.24 1.41 2.13 1.48 2.02 1.56 1.92 1.65 1.83 1.73 1.74 1.83 1.65 1.92 1.56 2.02 1.49 2.12 1.41 2.23 1.34 2.34 1.28 2.46 1.22 2.57 1.17 2.7 1.12 2.82 1.08 2.94 1.04 3.07 1.01 3.2 .99 3.33 .97 3.46 .97 3.61 .96"/>
  <polygon class="cls-3" points="3.63 2.4 53.97 2.4 54.06 2.4 54.12 2.41 54.18 2.42 54.24 2.43 54.3 2.44 54.35 2.46 54.41 2.47 54.46 2.49 54.51 2.52 54.56 2.55 54.61 2.57 54.66 2.61 54.71 2.64 54.76 2.68 54.8 2.72 54.85 2.76 54.89 2.8 54.92 2.84 54.96 2.89 54.99 2.94 55.03 2.98 55.05 3.04 55.08 3.09 55.11 3.14 55.13 3.19 55.15 3.25 55.16 3.3 55.17 3.36 55.19 3.42 55.19 3.48 55.2 3.54 55.2 3.63 55.2 53.97 55.2 54.06 55.19 54.13 55.19 54.19 55.17 54.24 55.16 54.3 55.15 54.36 55.13 54.41 55.11 54.46 55.08 54.52 55.05 54.57 55.03 54.62 54.99 54.67 54.96 54.71 54.92 54.76 54.89 54.81 54.85 54.85 54.8 54.89 54.76 54.93 54.71 54.96 54.66 55 54.61 55.03 54.56 55.06 54.51 55.09 54.46 55.11 54.41 55.13 54.35 55.15 54.3 55.16 54.24 55.18 54.18 55.19 54.12 55.2 54.06 55.2 53.97 55.2 3.63 55.2 3.54 55.2 3.48 55.2 3.42 55.19 3.36 55.18 3.3 55.16 3.25 55.15 3.19 55.13 3.14 55.11 3.08 55.09 3.03 55.06 2.98 55.03 2.93 55 2.88 54.96 2.84 54.93 2.79 54.89 2.75 54.85 2.71 54.81 2.67 54.76 2.64 54.71 2.6 54.67 2.57 54.62 2.54 54.57 2.52 54.52 2.49 54.46 2.47 54.41 2.45 54.36 2.44 54.3 2.42 54.24 2.41 54.19 2.41 54.13 2.4 54.06 2.4 53.97 2.4 3.63 2.4 3.54 2.41 3.48 2.41 3.42 2.42 3.36 2.44 3.3 2.45 3.25 2.47 3.19 2.49 3.14 2.52 3.09 2.54 3.04 2.57 2.98 2.6 2.94 2.64 2.89 2.67 2.84 2.71 2.8 2.75 2.76 2.79 2.72 2.84 2.68 2.88 2.64 2.93 2.61 2.98 2.57 3.03 2.55 3.08 2.52 3.14 2.49 3.19 2.47 3.25 2.46 3.3 2.44 3.36 2.43 3.42 2.42 3.48 2.41 3.54 2.4 3.63 2.4"/>
  <path class="cls-1" d="m10.98,10.96c2.36-2.23,5.09-4.07,8.05-5.41,4.56-2.07,9.86-2.42,14.75-1.46,4.85.96,9.34,3.38,12.83,6.87,3.49,3.49,5.91,7.97,6.88,12.8.98,4.88.49,10-1.4,14.6-1.89,4.57-5.13,8.53-9.24,11.29-4.14,2.77-9.07,4.26-14.05,4.26s-9.91-1.49-14.05-4.26c-4.11-2.76-7.35-6.72-9.24-11.29-1.89-4.58-2.39-9.68-1.41-14.54.64-3.18,1.88-6.36,3.74-9.05.94-1.35,1.94-2.69,3.15-3.82"/>
  <path class="cls-3" d="m41.41,44.77L12.78,16.15c-1.03,1.46-2.08,2.97-2.76,4.63-1.19,2.87-1.75,6-1.59,9.11.2,3.74,1.44,7.39,3.57,10.46,2.82,4.07,7.11,7.01,11.93,8.18,4.76,1.15,9.99.57,14.32-1.73,1.11-.58,2.14-1.32,3.16-2.04"/>
  <path class="cls-3" d="m44.82,41.34c1.03-1.45,2.08-2.96,2.76-4.62.73-1.76,1.22-3.62,1.45-5.51.46-3.69-.12-7.48-1.66-10.87-2.02-4.47-5.68-8.12-10.15-10.14-5.62-2.54-12.42-2.4-17.88.51-1.1.59-2.13,1.32-3.16,2.04l28.63,28.58"/>
  <path class="cls-4" d="m40.79,37.32l-6-5.99v-7.96c0-1.58-.64-3.12-1.76-4.23-1.37-1.37-3.36-2.01-5.27-1.67-1.18.21-2.29.78-3.16,1.61-.36.35-.65.75-.93,1.16l-4.3-4.29c.47-.53.94-1.06,1.46-1.54.81-.74,1.73-1.34,2.72-1.82,1.63-.78,3.43-1.2,5.24-1.2,3.16,0,6.25,1.28,8.48,3.51,2.24,2.23,3.52,5.31,3.52,8.47v13.95"/>
  <path class="cls-4" d="m26.48,29.84l1.39,1.39c-.03.09-.05.17-.09.26-.03.07-.07.13-.11.19l-7.9,11.45-7.92-11.48c-.12-.18-.17-.43-.16-.65.02-.57.38-1.04.95-1.15.2-.04.4-.03.59.03l3.53,1.08.02-7.59c0-.49.03-.98.09-1.46.06-.48.15-.95.26-1.42l5.67,5.66v4.84l3.51-1.11s.06-.01.08-.02c.03,0,.06-.01.09-.02"/>
  <polygon class="cls-4" points="39.78 43.13 34.79 43.13 34.79 38.14 39.78 43.13"/>
</svg>