<?xml version="1.0" encoding="UTF-8"?>
<svg id="Layer_1" data-name="Layer 1" xmlns="http://www.w3.org/2000/svg" viewBox="0 0 72 72">
  <defs>
    <style>
      .cls-1 {
        fill: #fff;
      }

      .cls-1, .cls-2, .cls-3 {
        stroke-width: 0px;
      }

      .cls-2 {
        fill: #221f1f;
      }

      .cls-3 {
        fill: #1f1b17;
        fill-rule: evenodd;
      }
    </style>
  </defs>
  <rect class="cls-1" y="0" width="72" height="72" rx="4.5" ry="4.5"/>
  <path class="cls-2" d="m67.5,1.2H4.5c-1.82,0-3.3,1.48-3.3,3.3v63c0,1.82,1.48,3.3,3.3,3.3h63c1.82,0,3.3-1.48,3.3-3.3V4.5c0-1.82-1.48-3.3-3.3-3.3m1.5,66.3c0,.83-.67,1.5-1.5,1.5H4.5c-.83,0-1.5-.67-1.5-1.5V4.5c0-.83.67-1.5,1.5-1.5h63c.83,0,1.5.67,1.5,1.5v63Z"/>
  <path class="cls-3" d="m50.95,14.07c-3.91-2.59-8.8-4.3-13.56-4.56-7.24-.38-14.44,2.35-19.67,7.26l-2.56-3.22c-.34-.39-.65-.66-1.14-.67-.73,0-1.33.58-1.33,1.31l-.15,16.48,15.35-5.98c.68-.26,1.01-1.03.75-1.71-.18-.47-.55-.65-1.09-.83l-3.9-1.27c3.68-3.02,8.56-4.59,13.35-4.34,3.57.19,7.24,1.53,10.11,3.51l3.83-5.98Z"/>
  <path class="cls-3" d="m9.58,34.43c-.25,4.68.72,9.55,2.92,13.77,3.34,6.44,9.35,11.25,16.23,13.27l-1.48,3.84c-.16.48-.24.9,0,1.32.36.63,1.17.85,1.8.48l14.28-8.23-12.94-10.19c-.57-.45-1.4-.36-1.85.21-.31.4-.28.81-.17,1.36l.88,4.01c-4.47-1.64-8.3-5.05-10.51-9.31-1.65-3.18-2.36-7.01-2.1-10.49l-7.06-.04Z"/>
  <path class="cls-3" d="m47.77,59.74c4.18-2.13,8.07-5.55,10.62-9.58,3.89-6.12,5.04-13.73,3.32-20.7l4.07-.65c.5-.1.9-.24,1.14-.66.36-.63.14-1.44-.49-1.8l-14.28-8.22-2.32,16.31c-.1.72.4,1.39,1.12,1.5.5.07.84-.16,1.26-.54l3.02-2.77c.83,4.68-.2,9.71-2.77,13.76-1.92,3.02-4.88,5.56-8.02,7.08l3.33,6.26Z"/>
</svg>