<?xml version="1.0" encoding="UTF-8"?>
<svg id="Layer_1" data-name="Layer 1" xmlns="http://www.w3.org/2000/svg" viewBox="0 0 85.04 85.04">
  <defs>
    <style>
      .cls-1 {
        fill: #bf311a;
      }

      .cls-1, .cls-2, .cls-3 {
        stroke-width: 0px;
      }

      .cls-1, .cls-3 {
        fill-rule: evenodd;
      }

      .cls-2, .cls-3 {
        fill: #fff;
      }
    </style>
  </defs>
  <polygon class="cls-2" points="0 24.92 0 60.16 24.92 85.04 60.12 85.04 85.04 60.16 85.04 24.92 60.12 0 24.92 0 0 24.92"/>
  <polygon class="cls-1" points="2.13 25.78 25.79 2.13 59.21 2.13 82.91 25.78 82.91 59.25 59.21 82.91 25.79 82.91 2.13 59.25 2.13 25.78"/>
  <path class="cls-3" d="m22.87,48.93c0-4.08-2.38-7.16-7.85-10.34-2.09-1.19-2.68-1.99-2.68-3.38,0-1.89,1.49-3.28,3.38-3.28,1.79,0,3.18,1.29,3.28,3.28h3.88c-.1-4.27-3.18-7.36-7.16-7.36s-7.26,3.28-7.26,7.36c0,2.49,1.19,4.67,3.48,6.26,5.77,3.88,4.18,2.78,4.77,3.38,1.69,1.29,2.29,2.48,2.29,4.08,0,2.29-1.79,4.27-3.98,4.27-2.78,0-3.98-2.49-3.98-4.87h-3.98c0,4.67,2.98,8.86,7.95,8.86,4.37,0,7.85-3.69,7.85-8.27m15.81-16.8v-3.78h-14.41v3.78h5.17v24.55h4.07v-24.55h5.17Zm18.79,10.34c0-4.28-.4-6.96-1.59-9.74-1.39-3.48-3.38-4.87-6.66-4.87s-5.27,1.39-6.76,4.77c-1.19,2.68-1.59,5.57-1.59,9.84s.4,7.06,1.59,9.84c1.39,3.38,3.38,4.89,6.76,4.89,3.18,0,5.27-1.51,6.66-4.89,1.19-2.68,1.59-5.47,1.59-9.84m-3.88,0c0,3.28-.2,4.97-.9,7.26-.7,2.39-1.79,3.48-3.48,3.48-1.79,0-2.88-1.09-3.58-3.48-.6-2.29-.9-4.08-.9-7.16s.2-5.07.9-7.26c.69-2.38,1.79-3.48,3.58-3.48,1.69,0,2.78,1.09,3.48,3.58.6,2.09.9,3.88.9,7.06m24.25-6.16c0-4.77-2.98-7.95-7.45-7.95h-8.45v28.33h4.07v-12.43h4.37c4.77,0,7.45-2.78,7.45-7.95m-3.97,0c0,2.58-1.29,4.07-3.68,4.07h-4.18v-8.05h4.18c2.19,0,3.68,1.59,3.68,3.98"/>
</svg>